<?xml version="1.0" encoding="utf-8"?>
<!-- If you notice, this is actually a bfdi "Blocky Funny's Doing International" svg lol -->
<svg viewBox="-176.437 -399.461 1079.525 1246.53" xmlns="http://www.w3.org/2000/svg">
  <polygon fill="#FFFFFF" points="-176.437 -87.828 363.327 -399.461 903.088 -87.828 903.088 535.434 363.327 847.069 -176.437 535.435" transform="matrix(0.9999999999999999, 0, 0, 0.9999999999999999, -4.547473508864641e-13, 0)"/>
  <path fill="#B92640" d="M 362.6 -362.466 L -144.906 -69.459 L -144.906 516.557 L 362.6 809.569 L 870.103 516.556 L 870.106 -69.459 L 362.6 -362.466 Z M -113.473 499.053 L -113.473 -52.326 L 364.037 -328.014 L 841.547 -52.326 L 841.547 -52.316 L 364.037 222.515 L 364.037 774.743 L -113.473 499.053 Z" transform="matrix(0.9999999999999999, 0, 0, 0.9999999999999999, -4.547473508864641e-13, 0)"/>
  <g id="Blocky_x27_s_Face" transform="matrix(0.9999999999999999, 0, 0, 0.9999999999999999, -593.8787841796877, -881.48193359375)">
    <path fill="#FFFFFF" d="M1078.862,1224.685c2.79,0,7.485-2.159,9.681-3.552c2.196-1.391,52.925-33.562,52.925-33.562 s-3.065,30.5-3.065,52.12c0,21.619,4.195,29.203,12.584,29.203c15.65,0,24.524-40.018,24.524-82.288 c0-15.656,1.452-51.309-14.081-42.688c-7.105,3.944-76.273,50.27-80.953,53.336c-4.681,3.067-9.034,8.874-8.714,16.782 C1072.084,1221.943,1076.072,1224.685,1078.862,1224.685z"/>
    <path fill="#FFFFFF" d="M1245.214,1123.035c3.712,0,7.16-2.671,10.649-4.841c3.488-2.169,43.564-24.364,43.564-24.364 s-2.744,35.332-2.744,49.856c0,14.523,1.049,23.315,7.101,23.315c4.68,0,8.711-3.953,13.713-8.632 c5.004-4.678,7.335-9.683,10.326-15.328c5.324-9.038,6.616-36.465,6.616-62.604c0-23.231-0.967-30.655-6.938-30.655 c-4.679,0-8.552,1.452-14.845,5.324c-6.293,3.873-54.374,30.818-63.087,37.594c-7.386,5.745-11.941,12.101-11.941,20.331 S1241.501,1123.035,1245.214,1123.035z"/>
    <path fill="#FFFFFF" d="M1403.607,1169.921c-13.904,0-71.022,113.979-166.3,197.719c-30.333,26.865-72.442,56.472-119.721,56.472 c-34.853,0-52.278-17.669-57.763-22.911c-5.486-5.243-11.941-13.069-15.813-13.069c-3.146,0-7.342,1.131-10.649,3.712 c-3.307,2.581-5.809,6.132-5.809,12.907c0,14.926,27.431,51.631,81.644,51.631c54.214,0,91.618-24.697,141.342-68.734 c57.843-51.229,124.4-149.249,151.668-187.487c7.744-10.861,9.036-17.59,9.036-22.913S1407.975,1169.921,1403.607,1169.921z"/>
  </g>
  <rect id="the_only_thing_that_distinct_blocky_and_mudahmail" x="-13" y="-25" width="591.257" height="20.501" fill="#b92640" transform="matrix(0.866519093513, 0.499143987894, 0.016560997814, 1.163581967354, -104.250691567546, -21.261418134215)"/>
</svg>